#!OML:ASF H:\Terrain\Patient Classification 1\Terrain2\Thursday\justin.ASF
:FULLY-SPECIFIED
:DEGREES
2759
root 18.423 23.5555 11.1107 767.539 -259.122 -668.233
lowerback 14.0456 -0.511192 8.91822
upperback 2.79791 1.18956 4.58231
thorax -4.847 0.612939 -0.399842
lowerneck -12.5326 -3.65677 -10.2373
upperneck 34.9041 -3.23413 6.02463
head 14.3792 -1.45936 3.89599
rclavicle 2.40529e-014 -6.36111e-015
rhumerus -27.0024 -5.44422 -77.878
rradius 46.5941
rwrist -16.5226
rhand -24.2773 12.473
rfingers 7.12502
rthumb 2.20952 -17.4953
lclavicle 2.40529e-014 -6.36111e-015
lhumerus -32.9364 4.23043 82.9966
lradius 29.5474
lwrist 3.03061
lhand -17.8501 21.5921
lfingers 7.12502
lthumb 8.41504 51.4044
rfemur 0.673919 -6.45899 32.6322
rtibia 31.053
rfoot -24.3826 -2.66787
rtoes 2.17839
lfemur -47.4151 3.23341 -10.5954
ltibia 91.3575
lfoot 1.9832 -12.4062
ltoes -0.615795
2760
root 18.529 23.5242 11.0965 769.156 -258.622 -666.422
lowerback 13.8578 -0.59579 9.5224
upperback 2.83553 1.16034 4.72582
thorax -4.6974 0.603748 -0.575773
lowerneck -12.5676 -3.67104 -10.4948
upperneck 35.1725 -3.22701 6.22435
head 14.523 -1.46086 4.04144
rclavicle 6.16232e-015 7.95139e-016
rhumerus -26.9478 -5.06041 -78.0268
rradius 46.9846
rwrist -16.6046
rhand -24.6805 12.7115
rfingers 7.12502
rthumb 1.82017 -17.2605
lclavicle 6.16232e-015 7.95139e-016
lhumerus -32.7277 4.4408 82.8838
lradius 29.4548
lwrist 2.89908
lhand -17.7408 21.4477
lfingers 7.12502
lthumb 8.52044 51.2558
rfemur 1.31396 -7.01664 33.1502
rtibia 30.9137
rfoot -24.4788 -2.57892
rtoes 1.34681
lfemur -48.0485 3.10752 -10.0806
ltibia 89.9098
lfoot 2.413 -12.0994
ltoes 4.68677
2761
root 18.6421 23.5038 11.0957 768.908 -258.75 -666.313
lowerback 13.9218 -0.581107 9.2746
upperback 2.90705 1.13819 4.64885
thorax -4.66077 0.597331 -0.517175
lowerneck -12.5162 -3.63288 -10.6424
upperneck 35.3276 -3.21576 6.49938
head 14.5906 -1.43729 4.19501
rclavicle -1.19271e-015 6.36111e-014
rhumerus -26.952 -4.62476 -78.2758
rradius 47.3959
rwrist -16.9226
rhand -24.7266 12.6161
rfingers 7.12502
rthumb 1.77561 -17.3563
lclavicle -1.19271e-015 6.36111e-014
lhumerus -32.5977 4.44603 82.6867
lradius 29.4533
lwrist 3.04964
lhand -17.7288 21.5731
lfingers 7.12502
lthumb 8.53209 51.3807
rfemur 2.12962 -7.11012 33.0485
rtibia 30.913
rfoot -24.5396 -2.45249
rtoes 2.87869
lfemur -48.1962 3.02659 -10.2989
ltibia 88.1565
lfoot 2.70653 -12.0232
ltoes 6.52658
2762
root 18.7519 23.4771 11.0944 768.892 -258.735 -666.019
lowerback 13.9645 -0.523712 9.31621
upperback 2.94572 1.20887 4.50092
thorax -4.63261 0.630688 -0.70956
lowerneck -12.3872 -3.63257 -10.379
upperneck 35.3875 -3.29719 6.52006
head 14.5898 -1.4311 4.14774
rclavicle -8.94531e-016 7.95139e-016
rhumerus -27.0258 -4.60181 -78.5284
rradius 47.8318
rwrist -17.1679
rhand -24.3521 12.272
rfingers 7.12502
rthumb 2.13729 -17.6971
lclavicle -8.94531e-016 7.95139e-016
lhumerus -32.4224 4.04152 82.5127
lradius 29.3278
lwrist 3.2948
lhand -18.445 21.1297
lfingers 7.12502
lthumb 7.84089 50.9643
rfemur 2.87027 -7.21032 33.0211
rtibia 31.0554
rfoot -24.8753 -1.70307
rtoes 7.22989
lfemur -48.3305 2.86805 -10.3791
ltibia 86.2255
lfoot 2.95205 -11.9273
ltoes 6.75494
2763
root 18.8619 23.4389 11.0883 769.509 -258.677 -665.137
lowerback 13.9271 -0.485824 9.37878
upperback 2.99069 1.25994 4.49336
thorax -4.55844 0.659507 -0.760875
lowerneck -12.3053 -3.60874 -10.1939
upperneck 35.5468 -3.25069 6.37304
head 14.6326 -1.40189 4.06876
rclavicle 1.14301e-014 1.82882e-014
rhumerus -27.0095 -4.45479 -78.6872
rradius 48.2049
rwrist -17.1828
rhand -24.1436 12.0876
rfingers 7.12502
rthumb 2.33865 -17.8793
lclavicle 1.14301e-014 1.82882e-014
lhumerus -32.3598 4.22055 82.3645
lradius 29.1862
lwrist 3.20229
lhand -19.0343 20.4757
lfingers 7.12502
lthumb 7.27204 50.3307
rfemur 3.42896 -7.39405 33.0686
rtibia 31.4666
rfoot -25.6312 -1.37768
rtoes 8.58283
lfemur -48.4257 2.87669 -10.389
ltibia 84.2101
lfoot 2.91775 -11.9933
ltoes 4.21502
2764
root 18.9763 23.4074 11.0811 768.873 -258.832 -665.414
lowerback 13.9029 -0.446539 9.04265
upperback 3.13462 1.2507 4.50643
thorax -4.40032 0.669143 -0.55971
lowerneck -12.1531 -3.62314 -10.0824
upperneck 35.5414 -3.20767 6.08063
head 14.5833 -1.40602 3.93123
rclavicle -6.26172e-015 7.95139e-016
rhumerus -26.9025 -4.21345 -78.7023
rradius 48.5274
rwrist -17.0799
rhand -24.2667 12.0969
rfingers 7.12502
rthumb 2.21976 -17.8713
lclavicle -6.26172e-015 7.95139e-016
lhumerus -32.2191 4.57912 82.3342
lradius 29.1755
lwrist 3.25972
lhand -18.9258 20.5837
lfingers 7.12502
lthumb 7.37674 50.4351
rfemur 4.10276 -7.64531 32.751
rtibia 31.8876
rfoot -26.1282 -1.47437
rtoes 6.52287
lfemur -48.1618 2.85162 -10.7697
ltibia 82.0028
lfoot 2.90537 -12.0732
ltoes 1.32936
2765
root 19.0858 23.3351 11.0734 770.491 -258.469 -663.522
lowerback 13.7227 -0.476066 9.42619
upperback 3.30827 1.254 4.67525
thorax -4.11233 0.690153 -0.592407
lowerneck -12.1884 -3.6428 -10.0134
upperneck 35.5927 -3.1857 5.89983
head 14.6091 -1.41097 3.8483
rclavicle -8.94531e-016 1.03368e-014
rhumerus -26.6601 -4.048 -78.7457
rradius 48.7635
rwrist -16.9196
rhand -24.4142 12.2269
rfingers 7.12502
rthumb 2.0773 -17.7428
lclavicle -8.94531e-016 1.03368e-014
lhumerus -31.8835 4.70512 82.3335
lradius 29.1352
lwrist 3.52867
lhand -18.8516 20.6604
lfingers 7.12502
lthumb 7.4484 50.5093
rfemur 4.55206 -7.96805 33.1766
rtibia 32.3828
rfoot -26.1222 -1.23103
rtoes 6.15395
lfemur -48.234 2.93103 -10.3701
ltibia 79.8586
lfoot 3.42903 -12.0085
ltoes -0.223368
2766
root 19.1984 23.2832 11.0616 773.315 -258.071 -660.568
lowerback 13.4827 -0.452393 10.0869
upperback 3.36938 1.3548 4.77548
thorax -3.89416 0.749962 -0.865002
lowerneck -12.2325 -3.64326 -10.0063
upperneck 35.7747 -3.21552 6.02881
head 14.7101 -1.40321 3.9069
rclavicle -1.2921e-015 -5.56597e-015
rhumerus -26.5084 -4.14297 -78.9514
rradius 48.8998
rwrist -16.7846
rhand -24.3213 12.3672
rfingers 7.12502
rthumb 2.1671 -17.6016
lclavicle -1.2921e-015 -5.56597e-015
lhumerus -31.7267 4.98638 82.1161
lradius 29.1254
lwrist 3.39056
lhand -18.8397 20.3738
lfingers 7.12502
lthumb 7.45989 50.2222
rfemur 4.81324 -8.17217 33.7641
rtibia 32.9591
rfoot -26.1508 -0.550915
rtoes 8.95295
lfemur -48.2596 3.05912 -9.72562
ltibia 77.4735
lfoot 4.45267 -11.6664
ltoes -0.00247633
2767
root 19.3188 23.2463 11.0497 774.464 -258.101 -659.094
lowerback 13.4535 -0.393332 10.1347
upperback 3.44097 1.43196 4.79086
thorax -3.79435 0.79494 -0.887056
lowerneck -12.0396 -3.63142 -10.121
upperneck 35.805 -3.19573 6.09357
head 14.6825 -1.39986 3.96
rclavicle -5.66536e-015 4.92986e-014
rhumerus -26.5094 -3.99283 -79.1088
rradius 49.0601
rwrist -16.877
rhand -24.3083 12.4318
rfingers 7.12502
rthumb 2.17965 -17.5368
lclavicle -5.66536e-015 4.92986e-014
lhumerus -31.6876 5.46677 81.9014
lradius 29.0442
lwrist 3.1022
lhand -18.6567 20.3094
lfingers 7.12502
lthumb 7.63654 50.1516
rfemur 5.30428 -8.35523 33.7101
rtibia 33.6862
rfoot -26.4227 0.410104
rtoes 12.8694
lfemur -47.7413 2.9627 -9.58755
ltibia 74.8416
lfoot 5.6663 -11.0469
ltoes 1.74528
2768
root 19.4377 23.2103 11.04 775.006 -258.299 -658.273
lowerback 13.3442 -0.345395 9.84992
upperback 3.54123 1.43587 4.84795
thorax -3.63683 0.808322 -0.669336
lowerneck -11.7165 -3.55255 -10.3755
upperneck 35.6552 -3.03081 6.07204
head 14.5268 -1.36653 4.01396
rclavicle 1.71949e-014 1.59028e-015
rhumerus -26.4735 -3.34082 -79.1708
rradius 49.3086
rwrist -17.32
rhand -24.8068 12.3935
rfingers 7.12502
rthumb 1.69815 -17.5795
lclavicle 1.71949e-014 1.59028e-015
lhumerus -31.615 5.92921 81.8277
lradius 28.8928
lwrist 2.97052
lhand -18.4702 20.4299
lfingers 7.12502
lthumb 7.81654 50.2654
rfemur 5.90182 -8.47467 33.4641
rtibia 34.0574
rfoot -26.3788 1.59994
rtoes 18.3034
lfemur -47.054 2.86011 -9.67411
ltibia 72.1023
lfoot 6.91667 -10.3608
ltoes 3.40305
